Coordinates
version=1
nRows=8
nColumns=63
inDegrees=yes

Units are S.I. units (second, meters, Newtons, ...)
If the header above contains a line with 'inDegrees', this indicates whether rotational values are in degrees (yes) or radians (no).

endheader
time	pelvis_tilt	pelvis_list	pelvis_rotation	pelvis_tx	pelvis_ty	pelvis_tz	hip_flexion_r	hip_adduction_r	hip_rotation_r	knee_angle_r	knee_angle_r_beta	ankle_angle_r	subtalar_angle_r	mtp_angle_r	hip_flexion_l	hip_adduction_l	hip_rotation_l	knee_angle_l	knee_angle_l_beta	ankle_angle_l	subtalar_angle_l	mtp_angle_l	L5_S1_Flex_Ext	L5_S1_Lat_Bending	L5_S1_axial_rotation	L4_L5_Flex_Ext	L4_L5_Lat_Bending	L4_L5_axial_rotation	L3_L4_Flex_Ext	L3_L4_Lat_Bending	L3_L4_axial_rotation	L2_L3_Flex_Ext	L2_L3_Lat_Bending	L2_L3_axial_rotation	L1_L2_Flex_Ext	L1_L2_Lat_Bending	L1_L2_axial_rotation	L1_T12_Flex_Ext	L1_T12_Lat_Bending	L1_T12_axial_rotation	Abs_r3	Abs_r2	Abs_r1	Abs_t1	Abs_t2	neck_flexion	neck_bending	neck_rotation	arm_flex_r	arm_add_r	arm_rot_r	elbow_flex_r	pro_sup_r	wrist_flex_r	wrist_dev_r	arm_flex_l	arm_add_l	arm_rot_l	elbow_flex_l	pro_sup_l	wrist_flex_l	wrist_dev_l
      0.00000000	      0.07633171	     -8.64829220	     96.84544155	      0.27036574	      0.39917884	      0.91027913	      9.29283180	     -1.66435611	    -10.65604256	      9.24304659	      0.16132160	     31.28695472	      6.64010684	      0.00000000	      9.15816940	      2.04053751	     18.33467611	      4.72645196	      0.08249215	     27.10771462	    -11.43456828	      0.00000000	      0.37222231	      0.00060397	     -0.14469791	      0.69125405	      0.00080328	     -0.15374153	      0.61152403	      0.00146849	     -0.15374153	      0.42541288	      0.00146849	     -0.12661067	      0.34564563	      0.00123161	     -0.11756705	      0.21268783	      0.00093555	     -0.10852343	      2.65874672	      0.00683222	     -0.80476635	      0.00000000	      0.00000000	     28.03132386	     -1.25445232	      3.58760686	     17.73596450	     -6.81542181	     79.34633553	     36.63763670	     82.92959160	     -0.99582057	     -6.09678725	     18.84497735	     -5.13177249	     86.09251702	     36.70123613	     84.70829242	    -15.47011391	     -1.88341044
      0.01666667	      0.04142657	     -8.41399096	     97.31447310	      0.26979675	      0.39943802	      0.90971436	      8.79197846	     -1.67687478	    -10.76744701	      8.86860470	      0.15478635	     31.19080308	      7.05779300	      0.00000000	      8.81136398	      2.05470333	     19.41463773	      4.41661664	      0.07708450	     27.16111697	    -11.85982060	      0.00000000	      0.34933373	     -0.00720549	     -0.14102360	      0.64874768	     -0.00958330	     -0.14983757	      0.57392039	     -0.01751942	     -0.14983757	      0.39925352	     -0.01751942	     -0.12339565	      0.32439131	     -0.01469343	     -0.11458167	      0.19960930	     -0.01116130	     -0.10576770	      2.49525593	     -0.08150992	     -0.78433093	      0.00000000	      0.00000000	     27.98904511	     -1.53919249	      2.89465888	     16.25758273	     -6.85416349	     74.70890099	     36.47400624	     73.43642853	      2.15206661	     -6.09694611	     19.02266967	     -5.11062860	     85.69054081	     36.58935250	     83.10695864	    -14.09401451	     -2.88748656
      0.03333333	     -0.01142997	     -8.19288373	     97.50051988	      0.26969591	      0.39978130	      0.90955970	      8.48195513	     -1.70891033	    -10.79476292	      8.74518373	      0.15263225	     31.23088031	      7.45100186	      0.00000000	      8.47391801	      2.06206303	     20.24989223	      4.17297297	      0.07283212	     26.99125493	    -12.52884570	      0.00000000	      0.32076041	     -0.01258378	     -0.17081686	      0.59568416	     -0.01673643	     -0.18149292	      0.52697728	     -0.03059620	     -0.18149292	      0.36659708	     -0.03059620	     -0.14946475	      0.29785812	     -0.02566084	     -0.13878870	      0.18328250	     -0.01949227	     -0.12811265	      2.29115955	     -0.14235022	     -0.95003214	      0.00000000	      0.00000000	     27.93321094	     -1.48366743	      3.00651151	     16.85227541	     -6.91606783	     78.33219878	     36.68710350	     54.65100969	      1.94582780	     -6.82556991	     19.12777720	     -5.28434405	     85.33087756	     36.74742357	     81.38707243	    -13.77165261	     -3.41043745
      0.05000000	      0.00149679	     -8.08275380	     97.65567753	      0.26948799	      0.39988729	      0.90929966	      8.30913323	     -1.69657277	    -10.63387391	      8.64468171	      0.15087816	     31.30413303	      7.58218371	      0.00000000	      8.34489058	      2.03687282	     20.37196610	      4.17813087	      0.07292214	     27.03757028	    -12.40662351	      0.00000000	      0.30848139	     -0.01000298	     -0.18216179	      0.57288079	     -0.01330396	     -0.19354690	      0.50680407	     -0.02432123	     -0.19354690	      0.35256338	     -0.02432123	     -0.15939156	      0.28645582	     -0.02039807	     -0.14800645	      0.17626627	     -0.01549461	     -0.13662134	      2.20345171	     -0.11315566	     -1.01312921	      0.00000000	      0.00000000	     27.91092616	     -1.52698948	      3.01966061	     16.84277544	     -7.04016794	     77.55573303	     36.91102961	     54.13635414	      1.80877928	     -7.53146975	     19.23575009	     -5.44080466	     84.96274960	     37.05962223	     81.16236385	    -13.46003459	     -3.53387745
      0.06666667	      0.02351700	     -8.03575838	     97.86314960	      0.26922985	      0.40002580	      0.90888195	      8.05359005	     -1.63863209	    -10.45104010	      8.24842941	      0.14396225	     31.23865136	      7.26457816	      0.00000000	      8.25888858	      2.01865468	     20.16769953	      4.18292925	      0.07300589	     27.18395570	    -11.85025953	      0.00000000	      0.30727269	     -0.01075586	     -0.17972532	      0.57063611	     -0.01430529	     -0.19095816	      0.50481830	     -0.02615179	     -0.19095816	      0.35118196	     -0.02615179	     -0.15725966	      0.28533342	     -0.02193335	     -0.14602683	      0.17557561	     -0.01666082	     -0.13479399	      2.19481809	     -0.12167242	     -0.99957834	      0.00000000	      0.00000000	     27.86342989	     -1.71256293	      2.60582158	     16.82039242	     -7.14205839	     77.23582720	     37.03792368	     51.94759174	      1.66032446	     -8.19040541	     19.11469535	     -5.53144536	     83.70503690	     37.16013314	     79.97369453	    -11.14508709	     -3.38768109
      0.08333333	      0.04320109	     -8.07591860	     97.95604497	      0.26914520	      0.40008276	      0.90875868	      8.07493909	     -1.64708503	    -10.40997963	      8.18274527	      0.14281585	     31.34268570	      7.26608657	      0.00000000	      8.26674937	      2.01464970	     20.13484997	      4.18350260	      0.07301589	     27.12121949	    -11.83267455	      0.00000000	      0.31258953	     -0.00979992	     -0.16863638	      0.58051002	     -0.01303390	     -0.17917615	      0.51355334	     -0.02382753	     -0.17917615	      0.35725857	     -0.02382753	     -0.14755683	      0.29027064	     -0.01998400	     -0.13701706	      0.17861366	     -0.01518008	     -0.12647729	      2.23279575	     -0.11085868	     -0.93790496	      0.00000000	      0.00000000	     27.82658776	     -1.71176882	      2.60612572	     17.04215773	     -7.24205668	     77.17988196	     37.10984755	     51.93858368	      1.63130041	     -8.26645903	     19.23910653	     -5.56822780	     83.62585549	     37.25380959	     79.94033902	    -11.11640486	     -3.40374735
      0.10000000	     -0.01223167	     -8.20458409	     97.94728232	      0.26908377	      0.39993541	      0.90815726	      8.05442991	     -1.71225829	    -10.19910641	      7.88778148	      0.13766776	     31.37619507	      7.21506821	      0.00000000	      8.34795438	      2.09207539	     19.86976514	      4.19210596	      0.07316605	     27.06063833	    -11.73995229	      0.00000000	      0.33232101	     -0.01641717	     -0.12460857	      0.61715336	     -0.02183484	     -0.13239660	      0.54597019	     -0.03991671	     -0.13239660	      0.37980969	     -0.03991671	     -0.10903250	      0.30859329	     -0.03347790	     -0.10124446	      0.18988823	     -0.02543020	     -0.09345643	      2.37373577	     -0.18571433	     -0.69303547	      0.00000000	      0.00000000	     27.87546080	     -1.84637149	      2.53590371	     17.21565952	     -7.60671480	     77.41787901	     37.67271903	     52.13583892	      1.27044244	     -8.69677923	     19.20558650	     -5.76435026	     83.13084905	     37.67420965	     79.38300720	    -10.51572035	     -3.25309425
      0.11666667	     -0.10526969	     -8.43345166	     97.77395973	      0.26933357	      0.39988541	      0.90791957	      8.19191152	     -1.79645673	     -9.73081951	      7.60114031	      0.13266493	     31.34646023	      6.98148078	      0.00000000	      8.51856544	      2.18013462	     19.37796294	      4.11321807	      0.07178920	     26.97296816	    -11.54249302	      0.00000000	      0.35971248	     -0.02842216	     -0.04236875	      0.66802206	     -0.03780148	     -0.04501680	      0.59097164	     -0.06910565	     -0.04501680	      0.41111540	     -0.06910565	     -0.03707266	      0.33402901	     -0.05795848	     -0.03442461	      0.20553971	     -0.04402593	     -0.03177656	      2.56939031	     -0.32151721	     -0.23564228	      0.00000000	      0.00000000	     27.89876011	     -2.13137207	      2.25135848	     17.62288841	     -7.79578567	     78.34103929	     37.85782492	     52.95546830	      0.61908234	     -8.52008916	     19.08004449	     -5.78364681	     82.18309064	     37.74883432	     78.02855130	     -9.29261680	     -2.71348427
